<svg xmlns="http://www.w3.org/2000/svg" viewBox="0 0 1024 1024" width="1024" height="1024" fill="none">
  <!-- Fundo branco -->
  <rect width="1024" height="1024" fill="#fff"/>
  <!-- Círculo externo -->
  <circle cx="512" cy="512" r="492" stroke="#6335be" stroke-width="24"/>
  <!-- Torre central (adaptado do caminho original) -->
  <path fill="#6335be" d="M497.5,168.5 C589.72,166.465 663.553,201.798 719,274.5 C770.622,352.131 779.289,434.465 745,521.5 C717.047,584.786 671.214,629.953 607.5,657 C520.197,689.17 438.197,679.17 361.5,627 C294.636,574.774 259.969,505.94 257.5,420.5 C260.092,339.488 292.425,273.321 354.5,222 C396.883,190.146 444.549,172.313 497.5,168.5 Z"/>
  <!-- Torre e detalhes internos (extraídos do seu SVG) -->
  <path fill="#fcfcfc" d="M620.5,354.5 C620.783,353.711 621.283,353.044 622,352.5 C622.5,327.169 622.667,301.836 622.5,276.5 C621.817,272.98 619.817,270.48 616.5,269 C600.833,268.333 585.167,268.333 569.5,269 C565.582,270.083 563.248,272.583 562.5,276.5 C561.507,284.984 561.174,293.651 561.5,302.5 C555.167,302.5 548.833,302.5 542.5,302.5 C542.826,293.651 542.493,284.984 541.5,276.5 C540.752,272.583 538.418,270.083 534.5,269 C520.171,268.5 505.837,268.333 491.5,268.5 C486.661,269.172 483.495,271.838 482,276.5 C481.5,285.16 481.334,293.827 481.5,302.5 C474.833,302.5 468.167,302.5 461.5,302.5 C461.666,293.161 461.5,283.827 461,274.5 C459.37,271.432 456.87,269.432 453.5,268.5 C438.163,268.333 422.83,268.5 407.5,269 C404.619,270.251 402.786,272.417 402,275.5 C401.333,301.167 401.333,326.833 402,352.5 C402.383,353.056 402.883,353.389 403.5,353.5 C410.073,361.578 417.24,369.245 425,376.5 C425.5,389.162 425.667,401.829 425.5,414.5 C421.445,414.824 417.445,414.491 413.5,413.5 C402.843,385.745 382.676,374.745 353,380.5 C332.921,376.594 315.921,381.927 302,396.5 C298.4,401.699 295.9,407.365 294.5,413.5 C290.5,413.5 286.5,413.5 282.5,413.5 C287.645,334.679 322.645,273.179 387.5,229 C453.606,189.804 522.939,183.138 595.5,209 C669.062,239.563 715.895,293.396 736,370.5 C739.33,384.647 741.163,398.98 741.5,413.5 C737.167,413.5 732.833,413.5 728.5,413.5 C724.661,395.494 713.661,384.661 695.5,381 C678.167,380.333 660.833,380.333 643.5,381 C625.582,385.417 614.582,396.584 610.5,414.5 C606.167,414.5 601.833,414.5 597.5,414.5 C597.333,401.829 597.5,389.162 598,376.5 C605.395,368.937 612.895,361.603 620.5,354.5 Z"/>
  <!-- Correntes laterais -->
  <rect x="160" y="350" width="60" height="110" rx="30" stroke="#6335be" stroke-width="24" fill="#fff"/>
  <rect x="804" y="350" width="60" height="110" rx="30" stroke="#6335be" stroke-width="24" fill="#fff"/>
  <!-- Opcional: Suavização das elos das correntes (pode ser ajustado conforme necessário) -->
  <!-- Você pode adicionar ou ajustar detalhes conforme o restante do design desejado -->
</svg>